<svg width="298" height="249" viewBox="0 0 298 249" fill="none" xmlns="http://www.w3.org/2000/svg">
<mask id="mask0_9_102" style="mask-type:alpha" maskUnits="userSpaceOnUse" x="0" y="0" width="298" height="249">
<rect width="298" height="249" fill="#D9D9D9"/>
</mask>
<g mask="url(#mask0_9_102)">
<path d="M142.754 94.2369C132.752 94.2369 134.326 87.9392 136.364 84.7903L109.784 97.2005L81.8145 126.374L51.8078 103.313C51.7647 106.799 50.1438 113.318 44.85 118.629C42.549 120.937 39.554 123.017 35.693 124.521L81.8145 160.826L109.784 144.155L102.004 208.985C102.598 207.938 104.288 206.526 107.479 205.131C113.418 202.535 124.555 200.001 143.495 200.001C164.394 200.001 178.814 205.408 187.001 210.401C190.221 212.365 192.477 214.264 193.784 215.745L188.412 185.368C188.412 185.368 197.418 188.747 201.393 179.676C202.711 176.667 202.868 174.04 202.336 171.803L199.412 144.484L210.153 115.249L205.807 110.002H192.38L194.214 105.993L191.159 100.842C188.63 98.294 179.263 91.5158 162.018 84.7903C161.304 85.7881 160.112 87.102 158.499 88.4315C155.022 91.2979 149.587 94.2369 142.754 94.2369Z" fill="#80CAFF"/>
<path d="M142.754 94.2369C132.752 94.2369 134.326 87.9392 136.364 84.7903L109.784 97.2005L81.8145 126.374L51.8078 103.313C51.7647 106.799 50.1438 113.318 44.85 118.629C42.549 120.937 39.554 123.017 35.693 124.521L81.8145 160.826L109.784 144.155L102.004 208.985C102.598 207.938 104.288 206.526 107.479 205.131C113.418 202.535 124.555 200.001 143.495 200.001C164.394 200.001 178.814 205.408 187.001 210.401C190.221 212.365 192.477 214.264 193.784 215.745L188.412 185.368C188.412 185.368 197.418 188.747 201.393 179.676C202.711 176.667 202.868 174.04 202.336 171.803L199.412 144.484L210.153 115.249L205.807 110.002H192.38L194.214 105.993L191.159 100.842C188.63 98.294 179.263 91.5158 162.018 84.7903C161.304 85.7881 160.112 87.102 158.499 88.4315C155.022 91.2979 149.587 94.2369 142.754 94.2369Z" fill="#476BB3"/>
<path d="M188.412 185.368C188.412 185.368 197.418 188.747 201.393 179.676C202.711 176.668 202.868 174.04 202.336 171.804L199.412 144.484L210.153 115.25L205.807 110.002H192.38L194.214 105.994L191.159 100.843H172.244L168.423 110.002H149.032L136.892 142.332H135.398C135.398 143.136 135.673 143.817 136.12 144.389L134.28 149.29C127.823 150.477 126.29 155.516 128.306 162.956C128.414 163.354 128.557 163.724 128.731 164.066L116.629 196.299H121.463H180.374L185.115 183.395L188.412 185.368Z" fill="white"/>
<path d="M199.353 144.799L202.189 170.096C198.889 164.735 194.554 162.805 192.799 162.511L199.353 144.799Z" fill="#80CAFF"/>
<path d="M199.353 144.799L202.189 170.096C198.889 164.735 194.554 162.805 192.799 162.511L199.353 144.799Z" fill="#476BB3"/>
<path d="M151.528 67.2097C150.189 74.374 155.618 76.2622 158.499 76.3107C168.27 73.6896 170.203 58.4241 169.949 51.1189C171.478 51.2645 175.264 51.5558 178.176 51.5558C195.286 51.5558 194.194 26 178.176 26C165.362 26 162.498 35.1739 162.668 39.7608C145.602 28.8104 135.316 41.5083 132.307 49.226C135.394 56.2738 144.743 59.4919 149.032 60.22C150.008 58.0115 152.822 54.4828 156.261 58.0358C159.7 61.5889 154.539 65.6322 151.528 67.2097Z" fill="#80CAFF"/>
<path d="M151.528 67.2097C150.189 74.374 155.618 76.2622 158.499 76.3107C168.27 73.6896 170.203 58.4241 169.949 51.1189C171.478 51.2645 175.264 51.5558 178.176 51.5558C195.286 51.5558 194.194 26 178.176 26C165.362 26 162.498 35.1739 162.668 39.7608C145.602 28.8104 135.316 41.5083 132.307 49.226C135.394 56.2738 144.743 59.4919 149.032 60.22C150.008 58.0115 152.822 54.4828 156.261 58.0358C159.7 61.5889 154.539 65.6322 151.528 67.2097Z" fill="#476BB3"/>
<path d="M109.783 144.156L81.8142 160.826L35.6928 124.522C39.5537 123.018 42.5487 120.937 44.8497 118.629M109.783 144.156L102.004 208.985C102.597 207.938 104.288 206.526 107.479 205.131M109.783 144.156C96.8176 141.47 114.136 112.019 114.136 112.019M188.412 185.369L193.784 215.746C192.477 214.265 190.221 212.365 187.001 210.402M188.412 185.369C188.412 185.369 197.418 188.747 201.393 179.676C202.711 176.668 202.867 174.04 202.336 171.804M188.412 185.369L185.114 183.395M191.158 100.843L194.214 105.994M191.158 100.843H172.244M191.158 100.843C188.63 98.2944 179.262 91.5162 162.017 84.7907C161.303 85.7884 160.112 87.1024 158.499 88.4319M194.214 105.994H174.9M194.214 105.994L192.38 110.002M174.9 105.994L172.244 100.843M174.9 105.994L173.202 110.002M172.244 100.843L168.423 110.002M173.202 110.002L168.864 120.24H187.698L189.98 115.25M173.202 110.002H168.423M149.031 110.002L151.962 115.25M149.031 110.002H168.423M149.031 110.002L134.279 149.29M210.153 115.25L205.807 110.002H192.38M210.153 115.25H189.98M210.153 115.25L199.411 144.485M151.962 115.25H170.971M151.962 115.25L141.771 142.332M192.38 110.002L189.98 115.25M121.463 196.299H116.628L128.731 164.067M121.463 196.299H180.373L185.114 183.395M121.463 196.299L132.457 167.082M132.457 167.082C138.255 169.15 148.387 166.788 154.053 164.809L185.114 183.395M132.457 167.082C130.783 166.484 129.471 165.518 128.731 164.067M139.231 149.08C140.214 149.144 141.264 149.261 142.383 149.435L141.984 147.008C141.463 146.956 140.819 146.847 140.139 146.667M139.231 149.08L140.139 146.667M139.231 149.08C137.336 148.956 135.69 149.031 134.279 149.29M141.771 142.332H135.398C135.398 144.784 137.953 146.088 140.139 146.667M141.771 142.332H149.031L161.414 151.355L192.807 162.459M187.001 210.402C178.814 205.409 164.394 200.002 143.495 200.002C124.555 200.002 113.418 202.536 107.479 205.131M187.001 210.402L195.245 266H146.297M107.479 205.131L97.3485 266H146.297M134.696 215.746L146.297 266M202.336 171.804C201.211 167.069 197.002 164.088 194.214 162.956L192.807 162.459M202.336 171.804L199.411 144.485M199.411 144.485L192.807 162.459M158.499 88.4319C155.022 91.2983 149.587 94.2373 142.754 94.2373C132.752 94.2373 134.326 87.9396 136.363 84.7907L109.783 97.2009L81.8142 126.374L51.8075 103.313C51.7645 106.799 50.1436 113.318 44.8497 118.629M158.499 88.4319V76.3109M158.499 76.3109C155.617 76.2624 150.188 74.3743 151.528 67.2099C154.539 65.6324 159.7 61.5891 156.261 58.0361C152.822 54.483 150.008 58.0117 149.031 60.2202C144.743 59.4922 135.394 56.2741 132.307 49.2262M158.499 76.3109C168.27 73.6899 170.203 58.4243 169.949 51.1192C171.478 51.2648 175.264 51.556 178.176 51.556C195.286 51.556 194.194 26.0002 178.176 26.0002C165.362 26.0002 162.498 35.1741 162.668 39.7611C145.601 28.8107 135.316 41.5085 132.307 49.2262M132.307 49.2262C122.623 74.1266 127.231 79.5872 138.131 79.5872V90.4357M50.7989 107.139L45.1936 97.2009L33.6375 85.8179C31.9173 86.2086 29.7938 88.6448 35.0611 95.2646C30.998 92.3205 23.432 89.4507 19.9442 91.4629C15.5845 93.9782 16.0208 99.5355 27.3204 108.166C36.3601 115.07 42.3248 117.676 44.8497 118.629M134.279 149.29C127.823 150.477 126.289 155.516 128.306 162.956C128.414 163.354 128.557 163.724 128.731 164.067" stroke="#80CAFF" stroke-linejoin="round"/>
<path d="M109.783 144.156L81.8142 160.826L35.6928 124.522C39.5537 123.018 42.5487 120.937 44.8497 118.629M109.783 144.156L102.004 208.985C102.597 207.938 104.288 206.526 107.479 205.131M109.783 144.156C96.8176 141.47 114.136 112.019 114.136 112.019M188.412 185.369L193.784 215.746C192.477 214.265 190.221 212.365 187.001 210.402M188.412 185.369C188.412 185.369 197.418 188.747 201.393 179.676C202.711 176.668 202.867 174.04 202.336 171.804M188.412 185.369L185.114 183.395M191.158 100.843L194.214 105.994M191.158 100.843H172.244M191.158 100.843C188.63 98.2944 179.262 91.5162 162.017 84.7907C161.303 85.7884 160.112 87.1024 158.499 88.4319M194.214 105.994H174.9M194.214 105.994L192.38 110.002M174.9 105.994L172.244 100.843M174.9 105.994L173.202 110.002M172.244 100.843L168.423 110.002M173.202 110.002L168.864 120.24H187.698L189.98 115.25M173.202 110.002H168.423M149.031 110.002L151.962 115.25M149.031 110.002H168.423M149.031 110.002L134.279 149.29M210.153 115.25L205.807 110.002H192.38M210.153 115.25H189.98M210.153 115.25L199.411 144.485M151.962 115.25H170.971M151.962 115.25L141.771 142.332M192.38 110.002L189.98 115.25M121.463 196.299H116.628L128.731 164.067M121.463 196.299H180.373L185.114 183.395M121.463 196.299L132.457 167.082M132.457 167.082C138.255 169.15 148.387 166.788 154.053 164.809L185.114 183.395M132.457 167.082C130.783 166.484 129.471 165.518 128.731 164.067M139.231 149.08C140.214 149.144 141.264 149.261 142.383 149.435L141.984 147.008C141.463 146.956 140.819 146.847 140.139 146.667M139.231 149.08L140.139 146.667M139.231 149.08C137.336 148.956 135.69 149.031 134.279 149.29M141.771 142.332H135.398C135.398 144.784 137.953 146.088 140.139 146.667M141.771 142.332H149.031L161.414 151.355L192.807 162.459M187.001 210.402C178.814 205.409 164.394 200.002 143.495 200.002C124.555 200.002 113.418 202.536 107.479 205.131M187.001 210.402L195.245 266H146.297M107.479 205.131L97.3485 266H146.297M134.696 215.746L146.297 266M202.336 171.804C201.211 167.069 197.002 164.088 194.214 162.956L192.807 162.459M202.336 171.804L199.411 144.485M199.411 144.485L192.807 162.459M158.499 88.4319C155.022 91.2983 149.587 94.2373 142.754 94.2373C132.752 94.2373 134.326 87.9396 136.363 84.7907L109.783 97.2009L81.8142 126.374L51.8075 103.313C51.7645 106.799 50.1436 113.318 44.8497 118.629M158.499 88.4319V76.3109M158.499 76.3109C155.617 76.2624 150.188 74.3743 151.528 67.2099C154.539 65.6324 159.7 61.5891 156.261 58.0361C152.822 54.483 150.008 58.0117 149.031 60.2202C144.743 59.4922 135.394 56.2741 132.307 49.2262M158.499 76.3109C168.27 73.6899 170.203 58.4243 169.949 51.1192C171.478 51.2648 175.264 51.556 178.176 51.556C195.286 51.556 194.194 26.0002 178.176 26.0002C165.362 26.0002 162.498 35.1741 162.668 39.7611C145.601 28.8107 135.316 41.5085 132.307 49.2262M132.307 49.2262C122.623 74.1266 127.231 79.5872 138.131 79.5872V90.4357M50.7989 107.139L45.1936 97.2009L33.6375 85.8179C31.9173 86.2086 29.7938 88.6448 35.0611 95.2646C30.998 92.3205 23.432 89.4507 19.9442 91.4629C15.5845 93.9782 16.0208 99.5355 27.3204 108.166C36.3601 115.07 42.3248 117.676 44.8497 118.629M134.279 149.29C127.823 150.477 126.289 155.516 128.306 162.956C128.414 163.354 128.557 163.724 128.731 164.067" stroke="#476BB3" stroke-linejoin="round"/>
</g>
</svg>
