<svg width="50" height="50" viewBox="0 0 50 50" fill="none" xmlns="http://www.w3.org/2000/svg">
<path d="M22.9167 37.4999C22.9167 39.7916 21.0417 41.6666 18.75 41.6666C16.4584 41.6666 14.5834 39.7916 14.5834 37.4999C14.5834 35.2083 16.4584 33.3333 18.75 33.3333C21.0417 33.3333 22.9167 35.2083 22.9167 37.4999ZM18.75 20.8333C16.4584 20.8333 14.5834 22.7083 14.5834 24.9999C14.5834 27.2916 16.4584 29.1666 18.75 29.1666C21.0417 29.1666 22.9167 27.2916 22.9167 24.9999C22.9167 22.7083 21.0417 20.8333 18.75 20.8333ZM18.75 8.33325C16.4584 8.33325 14.5834 10.2083 14.5834 12.4999C14.5834 14.7916 16.4584 16.6666 18.75 16.6666C21.0417 16.6666 22.9167 14.7916 22.9167 12.4999C22.9167 10.2083 21.0417 8.33325 18.75 8.33325ZM31.25 16.6666C33.5417 16.6666 35.4167 14.7916 35.4167 12.4999C35.4167 10.2083 33.5417 8.33325 31.25 8.33325C28.9584 8.33325 27.0834 10.2083 27.0834 12.4999C27.0834 14.7916 28.9584 16.6666 31.25 16.6666ZM31.25 20.8333C28.9584 20.8333 27.0834 22.7083 27.0834 24.9999C27.0834 27.2916 28.9584 29.1666 31.25 29.1666C33.5417 29.1666 35.4167 27.2916 35.4167 24.9999C35.4167 22.7083 33.5417 20.8333 31.25 20.8333ZM31.25 33.3333C28.9584 33.3333 27.0834 35.2083 27.0834 37.4999C27.0834 39.7916 28.9584 41.6666 31.25 41.6666C33.5417 41.6666 35.4167 39.7916 35.4167 37.4999C35.4167 35.2083 33.5417 33.3333 31.25 33.3333Z" fill="black"/>
</svg>
