<svg width="12" height="20" viewBox="0 0 12 20" fill="none" xmlns="http://www.w3.org/2000/svg">
<path d="M4.83342 17C4.83342 18.2833 3.78342 19.3333 2.50008 19.3333C1.21675 19.3333 0.166748 18.2833 0.166748 17C0.166748 15.7166 1.21675 14.6666 2.50008 14.6666C3.78342 14.6666 4.83342 15.7166 4.83342 17ZM2.50008 7.66663C1.21675 7.66663 0.166748 8.71663 0.166748 9.99996C0.166748 11.2833 1.21675 12.3333 2.50008 12.3333C3.78342 12.3333 4.83342 11.2833 4.83342 9.99996C4.83342 8.71663 3.78342 7.66663 2.50008 7.66663ZM2.50008 0.666626C1.21675 0.666626 0.166748 1.71663 0.166748 2.99996C0.166748 4.28329 1.21675 5.33329 2.50008 5.33329C3.78342 5.33329 4.83342 4.28329 4.83342 2.99996C4.83342 1.71663 3.78342 0.666626 2.50008 0.666626ZM9.50008 5.33329C10.7834 5.33329 11.8334 4.28329 11.8334 2.99996C11.8334 1.71663 10.7834 0.666626 9.50008 0.666626C8.21675 0.666626 7.16675 1.71663 7.16675 2.99996C7.16675 4.28329 8.21675 5.33329 9.50008 5.33329ZM9.50008 7.66663C8.21675 7.66663 7.16675 8.71663 7.16675 9.99996C7.16675 11.2833 8.21675 12.3333 9.50008 12.3333C10.7834 12.3333 11.8334 11.2833 11.8334 9.99996C11.8334 8.71663 10.7834 7.66663 9.50008 7.66663ZM9.50008 14.6666C8.21675 14.6666 7.16675 15.7166 7.16675 17C7.16675 18.2833 8.21675 19.3333 9.50008 19.3333C10.7834 19.3333 11.8334 18.2833 11.8334 17C11.8334 15.7166 10.7834 14.6666 9.50008 14.6666Z" fill="black"/>
</svg>
