<svg width="16" height="17" viewBox="0 0 16 17" fill="none" xmlns="http://www.w3.org/2000/svg">
<path d="M14 7.22727C14 11.6818 8 15.5 8 15.5C8 15.5 2 11.6818 2 7.22727C2 5.70831 2.63214 4.25155 3.75736 3.17748C4.88258 2.10341 6.4087 1.5 8 1.5C9.5913 1.5 11.1174 2.10341 12.2426 3.17748C13.3679 4.25155 14 5.70831 14 7.22727Z" stroke="#AAAAAA" stroke-linecap="round" stroke-linejoin="round"/>
<path d="M8 9.16663C9.10457 9.16663 10 8.2712 10 7.16663C10 6.06206 9.10457 5.16663 8 5.16663C6.89543 5.16663 6 6.06206 6 7.16663C6 8.2712 6.89543 9.16663 8 9.16663Z" stroke="#AAAAAA" stroke-linecap="round" stroke-linejoin="round"/>
</svg>
