<svg width="16" height="17" viewBox="0 0 16 17" fill="none" xmlns="http://www.w3.org/2000/svg">
<path d="M6.10195 4.10537C6.94662 2.59071 7.36862 1.83337 7.99995 1.83337C8.63129 1.83337 9.05329 2.59071 9.89795 4.10537L10.1166 4.49737C10.3566 4.92804 10.4766 5.14337 10.6633 5.28537C10.85 5.42737 11.0833 5.48004 11.55 5.58537L11.974 5.68137C13.614 6.05271 14.4333 6.23804 14.6286 6.86537C14.8233 7.49204 14.2646 8.14604 13.1466 9.45337L12.8573 9.79137C12.54 10.1627 12.3806 10.3487 12.3093 10.578C12.238 10.808 12.262 11.056 12.31 11.5514L12.354 12.0027C12.5226 13.7474 12.6073 14.6194 12.0966 15.0067C11.586 15.3947 10.818 15.0407 9.28329 14.334L8.88529 14.1514C8.44929 13.95 8.23129 13.85 7.99995 13.85C7.76862 13.85 7.55062 13.95 7.11395 14.1514L6.71729 14.334C5.18195 15.0407 4.41395 15.394 3.90395 15.0074C3.39262 14.6194 3.47729 13.7474 3.64595 12.0027L3.68995 11.552C3.73795 11.056 3.76195 10.808 3.68995 10.5787C3.61929 10.3487 3.45995 10.1627 3.14262 9.79204L2.85329 9.45337C1.73529 8.14671 1.17662 7.49271 1.37129 6.86537C1.56662 6.23804 2.38662 6.05204 4.02662 5.68137L4.45062 5.58537C4.91662 5.48004 5.14929 5.42737 5.33662 5.28537C5.52329 5.14337 5.64329 4.92804 5.88329 4.49737L6.10195 4.10537Z" fill="#EDCB1B"/>
</svg>
